<?xml version="1.0" encoding="UTF-8"?><svg id="Artwork" xmlns="http://www.w3.org/2000/svg" viewBox="0 0 377.35 413"><path d="M305.92,134.15c-25.72,14.85-112.01,64.64-112.01,64.64h0V69.55c0-3.68-3.97-5.97-7.16-4.14-24.48,14.12-104.26,60.14-119.1,68.69-1.51.89-2.38,2.38-2.38,4.14v137.51c0,2.63,2.15,4.78,4.78,4.78h76.58c4.69,8.08,30.38,52.48,38.4,66.33,1.31,2.28,4.23,3.06,6.51,1.74,19.71-11.36,103.88-59.95,119.17-68.77,1.51-.87,2.38-2.37,2.38-4.13v-137.41c0-3.68-3.97-5.97-7.16-4.14ZM74.81,270.99v-114.91l66.32,114.91h-66.32ZM184.38,326.68l-107.83-186.66,107.83-62.21v248.86ZM193.92,336.23v-55.7h96.59l-96.59,55.7ZM303.55,270.98h-109.62v-61.19l109.62-63.26v124.45Z"/></svg>